<?xml version="1.0" encoding="utf-8"?>
<!-- Generator: Adobe Illustrator 14.0.0, SVG Export Plug-In  -->
<!DOCTYPE svg PUBLIC "-//W3C//DTD SVG 1.1//EN" "http://www.w3.org/Graphics/SVG/1.1/DTD/svg11.dtd" [
	<!ENTITY ns_flows "http://ns.adobe.com/Flows/1.0/">
]>
<svg version="1.1"
	 xmlns="http://www.w3.org/2000/svg" xmlns:xlink="http://www.w3.org/1999/xlink" xmlns:a="http://ns.adobe.com/AdobeSVGViewerExtensions/3.0/"
	 x="0px" y="0px" width="150px" height="150px" viewBox="-35.928 -14 150 150" enable-background="new -35.928 -14 150 150"
	 xml:space="preserve">
<defs>
</defs>
<path fill-rule="evenodd" clip-rule="evenodd" d="M51.072,58c-10.877,21.992,20.983,20.706,23,36c0.917,6.959-4.185,9.131-5,17
	c0.753,2.58,7.396-0.73,7,3c0.986,8.881-9.246,5.495-14,4c-3.011-7.914,1.026-15.897,2-23c-5.016-12.702-41.181-15.317-47-2
	c-3.319,7.596,4.024,13.127-1,22c-3.612,1.638-14.336,4.363-16-1c-0.72-5.386,4.074-5.259,9-5c-7.125-24.561,7.503-30.312,25-35
	c5.278-24.758-26.537-22.262-28-42c-0.893-12.049,9.298-27.678,21-29c2.954,13.122-11.565,15.167-11,27
	c0.595,12.44,15.596,14.632,26,21c12.081-3.919,25.15-6.85,32-16c1.807-16.103-15.293-21.828-10-35c1,0,2,0,3,0
	c9.33,9.187,18.944,22.806,15,42C73.863,49.458,63.463,54.725,51.072,58z M77.072,34c-2.339,13.372-23.167,14.446-36,20
	c-8.217-7.237-24.524-8.149-27-20c-2.675-12.808,7.185-16.975,11-28c-8.19,2.968-18.271,16.461-16,28
	c3.113,15.822,38.83,19.431,26,43c-9.857,2.476-19.102,5.565-25,12c0.823,9.282,2.756,15.877,1,23c-4.344,0.784-7.245-2.789-8,2
	c3.406,2.676,7.598-0.545,11-1c2.415-6.784-0.738-12.974,0-21c8.521-11.829,38.776-14.657,49-3c7.08,8.072-0.389,13.368,1,27
	c3.292,0.042,4.979,1.688,9,1c-0.502-5.225-5.278,0.005-7-4c1.531-6.802,4.008-12.659,6-19c-5.351-13.761-34.277-13.11-23-37
	c10.542-7.654,30.002-7.1,32-22c1.599-11.927-7.336-25.009-16-32C67.006,15.236,79.105,22.373,77.072,34z"/>
<path fill-rule="evenodd" clip-rule="evenodd" fill="#FFFFFF" d="M65.072,3c8.664,6.991,17.599,20.073,16,32
	c-1.998,14.9-21.458,14.346-32,22c-11.277,23.89,17.649,23.239,23,37c-1.992,6.341-4.469,12.198-6,19c1.722,4.005,6.498-1.225,7,4
	c-4.021,0.688-5.708-0.958-9-1c-1.389-13.632,6.08-18.928-1-27c-10.224-11.657-40.479-8.829-49,3c-0.738,8.026,2.415,14.216,0,21
	c-3.402,0.455-7.594,3.676-11,1c0.755-4.789,3.656-1.216,8-2c1.756-7.123-0.177-13.718-1-23c5.898-6.435,15.143-9.524,25-12
	c12.83-23.569-22.887-27.178-26-43c-2.271-11.539,7.81-25.032,16-28c-3.815,11.025-13.675,15.192-11,28
	c2.476,11.851,18.783,12.763,27,20c12.833-5.554,33.661-6.628,36-20C79.105,22.373,67.006,15.236,65.072,3z"/>
<path fill-rule="evenodd" clip-rule="evenodd" d="M39.072,24c20.131-6.606,21.753,22.981,6,24C29.597,49,25.506,28.452,39.072,24z
	 M34.072,40c6.881,11.417,26.536,1.068,17-12C42.731,22.611,30.714,27.399,34.072,40z"/>
<path fill-rule="evenodd" clip-rule="evenodd" fill="#FFFFFF" d="M51.072,28c9.536,13.068-10.119,23.417-17,12
	C30.714,27.399,42.731,22.611,51.072,28z"/>
</svg>
