<?xml version="1.0" encoding="utf-8"?>
<!-- Generator: Adobe Illustrator 14.0.0, SVG Export Plug-In  -->
<!DOCTYPE svg PUBLIC "-//W3C//DTD SVG 1.1//EN" "http://www.w3.org/Graphics/SVG/1.1/DTD/svg11.dtd" [
	<!ENTITY ns_flows "http://ns.adobe.com/Flows/1.0/">
]>
<svg version="1.1"
	 xmlns="http://www.w3.org/2000/svg" xmlns:xlink="http://www.w3.org/1999/xlink" xmlns:a="http://ns.adobe.com/AdobeSVGViewerExtensions/3.0/"
	 x="0px" y="0px" width="150px" height="150px" viewBox="-30 -34.591 150 150" enable-background="new -30 -34.591 150 150"
	 xml:space="preserve">
<defs>
</defs>
<path fill-rule="evenodd" clip-rule="evenodd" d="M36,0.409c19.071-4.072,17.866,23.559,3,24C25.244,24.818,20.731,3.669,36,0.409z
	 M39,22.409c9.671-0.355,13.448-13.412,5-20C22.477-1.473,25.62,22.901,39,22.409z"/>
<path fill-rule="evenodd" clip-rule="evenodd" fill="#FFFFFF" d="M44,2.409c8.448,6.588,4.671,19.645-5,20
	C25.62,22.901,22.477-1.473,44,2.409z"/>
<path fill-rule="evenodd" clip-rule="evenodd" fill="#FFFFFF" d="M73,56.409c-4.085,5.165-26.285,6.933-30,0
	c6.306-2.36,17.786,0.452,23-3c-1.62-9.714-9.116-13.55-15-19c-4.311,2.979-3.206,13.424-2,19c-6.417-1.083-7.583,3.083-14,2
	c0.396-7.499,1.691-13.05-1-19c-11.242,1.424-14.643,10.69-19,19c1.995,9.005,20.65,1.35,22,11c-12.16,0.493-23.244-0.089-29-6
	c2.135-18.651,14.241-35.331,33-31C58.135,24.994,70.287,40.03,73,56.409z"/>
<path fill-rule="evenodd" clip-rule="evenodd" fill="#FFFFFF" d="M35,60.409c5.103-3.729,8.85,2.454,14,2
	c-0.262,5.071-1.044,9.622-2,14c-6.448-1.552-13.475-2.525-21-3c0.898-1.768,2.414-2.919,3-5c5.145-0.759,7.86,1.998,10-1
	C39.684,63.059,37.201,61.875,35,60.409z"/>
<path fill-rule="evenodd" clip-rule="evenodd" d="M75,55.409c1.811,2.188,7.83,0.17,10,2c-11.784,1.216-19.064,6.936-34,5
	c-2.203,3.797-1.378,10.622-3,15c-7.974-0.692-14.482-2.851-23-3c-1.069-3.736,2.483-2.85,2-6c-14.136,2.136-16.445-7.555-27-9
	c0.241-1.759,1.721-2.279,4-2c6.744-13.59,12.978-27.689,29-32c4.077-0.743,3.443,3.223,8,2C56.834,21.576,72.68,38.104,75,55.409z
	 M41,29.409c-18.759-4.331-30.865,12.349-33,31c5.756,5.911,16.84,6.493,29,6c-1.35-9.65-20.005-1.995-22-11
	c4.357-8.31,7.758-17.576,19-19c2.691,5.95,1.396,11.501,1,19c6.417,1.083,7.583-3.083,14-2c-1.206-5.576-2.311-16.021,2-19
	c5.884,5.45,13.38,9.286,15,19c-5.214,3.452-16.694,0.64-23,3c3.715,6.933,25.915,5.165,30,0C70.287,40.03,58.135,24.994,41,29.409z
	 M52,53.409c4.608-0.058,8.871-0.462,12-2c-3.748-5.252-6.935-11.065-13-14C49.461,42.49,49.794,49.332,52,53.409z M17,56.409
	c6.439-0.082,12.574-1.7,16-2c-0.907-5.093,2.062-14.062-2-16C25.231,43.307,19.275,48.018,17,56.409z M31,59.409
	c1.015-3.427-7.512-2.382-8-1C26.438,57.972,28.605,58.804,31,59.409z M39,67.409c-2.14,2.998-4.855,0.241-10,1
	c-0.586,2.081-2.102,3.232-3,5c7.525,0.475,14.552,1.448,21,3c0.956-4.378,1.738-8.929,2-14c-5.15,0.454-8.897-5.729-14-2
	C37.201,61.875,39.684,63.059,39,67.409z"/>
</svg>
