<?xml version="1.0" encoding="UTF-8"?>
<!DOCTYPE svg PUBLIC "-//W3C//DTD SVG 1.1//EN" "http://www.w3.org/Graphics/SVG/1.1/DTD/svg11.dtd">
<svg xmlns="http://www.w3.org/2000/svg" xmlns:xlink="http://www.w3.org/1999/xlink" version="1.1" width="276px" height="276px" viewBox="-0.5 -0.5 276 276"><defs/><g><rect x="3" y="3" width="270" height="270" fill="none" stroke="none" pointer-events="all"/><path d="M 138.04 3 C 90.24 3 51.35 42.02 51.35 89.97 C 51.35 137.96 90.24 176.95 138.01 176.95 C 185.79 176.95 224.68 137.93 224.68 89.97 C 224.71 42.02 185.81 3 138.04 3 Z M 138.04 168.88 C 94.67 168.88 59.38 133.47 59.38 89.95 C 59.38 46.45 94.69 11.01 138.04 11.01 C 181.39 11.01 216.71 46.45 216.71 89.95 C 216.68 133.47 181.39 168.88 138.04 168.88 Z" fill="#f5f5f5" stroke="#666666" stroke-width="6" stroke-miterlimit="10" pointer-events="all"/><path d="M 93.16 84.23 C 96.96 84.23 106.03 84.23 109.8 84.23 C 109.8 80.38 109.8 71.14 109.8 67.31 C 106.03 67.31 96.96 67.31 93.16 67.31 C 93.16 71.14 93.16 80.38 93.16 84.23 Z" fill="#f5f5f5" stroke="#666666" stroke-width="6" stroke-miterlimit="10" pointer-events="all"/><path d="M 138.1 21.54 C 100.48 21.54 69.86 52.27 69.86 90 C 69.86 127.76 100.46 158.47 138.1 158.47 C 175.71 158.47 206.3 127.76 206.3 90 C 206.3 52.27 175.71 21.54 138.1 21.54 Z M 87.29 90.17 L 87.29 61.35 L 115.81 61.35 L 115.81 90.17 L 87.29 90.17 Z M 116.68 142.85 C 108.87 142.85 102.56 136.51 102.56 128.66 C 102.56 120.82 108.9 114.47 116.68 114.47 C 124.47 114.47 130.8 120.82 130.8 128.66 C 130.8 136.51 124.47 142.85 116.68 142.85 Z M 133.78 111.36 C 125.97 111.36 119.63 105.01 119.63 97.17 C 119.63 89.35 125.97 82.97 133.78 82.97 C 141.56 82.97 147.9 89.35 147.9 97.17 C 147.9 104.98 141.56 111.36 133.78 111.36 Z M 143.67 57.6 C 135.47 57.6 128.78 50.9 128.78 42.65 C 128.78 34.39 135.45 27.72 143.67 27.72 C 151.89 27.72 158.55 34.39 158.55 42.65 C 158.55 50.9 151.89 57.6 143.67 57.6 Z M 168.36 133.69 C 160.52 133.69 154.21 127.35 154.21 119.5 C 154.21 111.66 160.52 105.31 168.36 105.31 C 176.14 105.31 182.48 111.66 182.48 119.5 C 182.48 127.35 176.17 133.69 168.36 133.69 Z M 171.36 92.02 C 163.58 92.02 157.24 85.65 157.24 77.83 C 157.24 69.99 163.58 63.64 171.36 63.64 C 179.18 63.64 185.51 69.99 185.51 77.83 C 185.51 85.65 179.18 92.02 171.36 92.02 Z" fill="#f5f5f5" stroke="#666666" stroke-width="6" stroke-miterlimit="10" pointer-events="all"/><path d="M 31.16 151.77 L 31.16 97 C 31.16 89.24 24.82 82.92 17.04 82.92 C 9.28 82.92 3 89.24 3 97 L 3 171.97 C 3 182.33 6.71 192.34 13.38 200.16 L 59.98 249.81 C 64.59 254.16 65.74 258.04 65.74 263.92 L 65.74 273 L 116.46 273 L 116.52 251.48 C 116.52 243.28 117.17 232.34 106.96 221.6 L 47.85 162.02 C 45.75 159.97 42.99 158.88 40.07 158.88 C 33.89 158.88 28.84 163.91 28.84 170.11 C 28.84 172.79 29.8 175.39 31.52 177.44 L 60.03 208.09 C 61.89 210.25 65 214.35 66.56 219.38 C 67.41 222.01 67.63 224.55 67.68 227.45 L 58.5 227.45 C 58.47 225.37 58.31 223.7 57.82 222.14 C 56.92 219.25 55.14 216.65 53.78 214.98 L 24.82 183.1 C 21.19 179.41 19.2 174.65 19.2 169.65 C 19.2 162.1 23.7 155.18 31.16 151.77 Z" fill="#f5f5f5" stroke="#666666" stroke-width="6" stroke-miterlimit="10" pointer-events="all"/><path d="M 244.84 151.77 L 244.84 97 C 244.84 89.24 251.18 82.92 258.96 82.92 C 266.72 82.92 273 89.24 273 97 L 273 171.97 C 273 182.33 269.29 192.34 262.62 200.16 L 216.02 249.84 C 211.41 254.19 210.26 258.07 210.26 263.95 L 210.26 273 L 159.56 273 L 159.51 251.48 C 159.51 243.28 158.85 232.34 169.07 221.6 L 228.18 162.02 C 230.28 159.97 233.04 158.88 235.96 158.88 C 242.14 158.88 247.19 163.91 247.19 170.11 C 247.19 172.79 246.23 175.39 244.51 177.44 L 216 208.09 C 214.14 210.25 211.02 214.35 209.47 219.38 C 208.62 222.01 208.4 224.55 208.35 227.45 L 217.53 227.45 C 217.55 225.37 217.72 223.7 218.21 222.14 C 219.11 219.25 220.88 216.65 222.25 214.98 L 251.2 183.1 C 254.84 179.41 256.83 174.65 256.83 169.65 C 256.8 162.1 252.3 155.18 244.84 151.77 Z" fill="#f5f5f5" stroke="#666666" stroke-width="6" stroke-miterlimit="10" pointer-events="all"/></g></svg>