<?xml version="1.0" encoding="utf-8"?>
<!-- Generator: Adobe Illustrator 14.0.0, SVG Export Plug-In  -->
<!DOCTYPE svg PUBLIC "-//W3C//DTD SVG 1.1//EN" "http://www.w3.org/Graphics/SVG/1.1/DTD/svg11.dtd" [
	<!ENTITY ns_flows "http://ns.adobe.com/Flows/1.0/">
]>
<svg version="1.1"
	 xmlns="http://www.w3.org/2000/svg" xmlns:xlink="http://www.w3.org/1999/xlink" xmlns:a="http://ns.adobe.com/AdobeSVGViewerExtensions/3.0/"
	 x="0px" y="0px" width="150px" height="150px" viewBox="-45.682 -17.432 150 150" enable-background="new -45.682 -17.432 150 150"
	 xml:space="preserve">
<defs>
</defs>
<path fill-rule="evenodd" clip-rule="evenodd" d="M22.362,0.568c12.95-3.668,21.596,11.311,13,20
	C21.842,34.234,2.326,6.244,22.362,0.568z M16.362,15.568c5.596,10.525,24.617,4.829,18-10C27.61-0.639,13.363,3.016,16.362,15.568z
	"/>
<path fill-rule="evenodd" clip-rule="evenodd" fill="#FFFFFF" d="M34.362,5.568c6.617,14.829-12.404,20.525-18,10
	C13.363,3.016,27.61-0.639,34.362,5.568z"/>
<path fill-rule="evenodd" clip-rule="evenodd" d="M30.362,26.568c2.468,9.966,1.657,19.729,1,31c0.783,4.521,6.585,8.33,3,14
	c9.655,9.422,18.022,26.519,11,44c1.832,3.169,6.326,3.674,6,9c-6.254,3.329-15.74,2.12-18-4c2.666-13.599,4.52-28.031-5-35
	c-3.893,11.44-11.726,18.94-17,29c1.585,3.415,7.572,2.428,7,8c-3.121,6.916-14.802,3.22-18-1c-3.456-19.485,19.053-28.894,16-49
	c-0.833-5.483-9.06-10.073-10-18C5.067,43.649,14.371,19.841,30.362,26.568z M20.362,27.568c-14.031,10.476-13.8,38.921,3,46
	c1.396-9.472-11.028-15.981-8-27c1.213-4.416,7.595-11.197,12-12c-10.232,7.596-13.514,26.236,0,33c1.271-11.617,3.321-25.9,1-38
	C24.698,29.899,22.806,28.458,20.362,27.568z M33.362,69.568c0.027-3.36-1.377-5.29-3-7C30.497,65.766,29.376,70.22,33.362,69.568z
	 M18.362,73.568c0.025,20.691-15.114,26.22-15,47c2.845,1.568,7.973,4.787,12,2c0.529-4.529-5.631-2.369-7-5
	c4.757-15.243,16.458-23.542,19-41c-0.208,7.831,9.296,11.283,11,19c1.809,8.189-1.856,15.129-2,25c2.476,2.064,9.223,5.164,12,1
	c-0.24-2.76-4.937-1.063-6-3c7.904-20.468-1.462-39.226-14-48C26.762,73.64,20.347,79.862,18.362,73.568z"/>
<path fill-rule="evenodd" clip-rule="evenodd" fill="#FFFFFF" d="M28.362,29.568c2.321,12.1,0.271,26.383-1,38
	c-13.514-6.764-10.232-25.404,0-33c-4.405,0.803-10.787,7.584-12,12c-3.028,11.019,9.396,17.528,8,27
	c-16.8-7.079-17.031-35.524-3-46C22.806,28.458,24.698,29.899,28.362,29.568z"/>
<path fill-rule="evenodd" clip-rule="evenodd" fill="#FFFFFF" d="M30.362,62.568c1.623,1.71,3.027,3.64,3,7
	C29.376,70.22,30.497,65.766,30.362,62.568z"/>
<path fill-rule="evenodd" clip-rule="evenodd" fill="#FFFFFF" d="M28.362,70.568c12.538,8.774,21.904,27.532,14,48
	c1.063,1.937,5.76,0.24,6,3c-2.777,4.164-9.524,1.064-12-1c0.144-9.871,3.809-16.811,2-25c-1.704-7.717-11.208-11.169-11-19
	c-2.542,17.458-14.243,25.757-19,41c1.369,2.631,7.529,0.471,7,5c-4.027,2.787-9.155-0.432-12-2c-0.114-20.78,15.025-26.309,15-47
	C20.347,79.862,26.762,73.64,28.362,70.568z"/>
</svg>
