<?xml version="1.0" encoding="UTF-8"?>
<!DOCTYPE svg PUBLIC "-//W3C//DTD SVG 1.1//EN" "http://www.w3.org/Graphics/SVG/1.1/DTD/svg11.dtd">
<svg xmlns="http://www.w3.org/2000/svg" xmlns:xlink="http://www.w3.org/1999/xlink" version="1.1" width="276px" height="276px" viewBox="-0.5 -0.5 276 276"><defs/><g><rect x="3" y="3" width="270" height="270" fill="none" stroke="none" pointer-events="all"/><path d="M 142.35 107.79 C 150.66 105.13 159.55 109.71 162.19 117.99 C 164.84 126.24 160.26 135.09 151.94 137.75 L 109.01 151.4 C 104.05 152.99 98.6 152.01 94.48 148.8 L 76.74 134.96 L 115.31 273 L 3 273 L 3 97.65 C 3 87.29 11.42 78.9 21.84 78.9 L 49.91 78.9 C 53.92 78.9 57.6 80.16 60.65 82.52 C 60.65 82.52 97.29 111.03 107.4 118.92 L 142.35 107.79 Z M 73.76 160.67 L 56.73 160.67 L 56.73 143.7 L 36.39 143.7 L 36.39 160.67 L 19.41 160.67 L 19.41 180.98 L 36.39 180.98 L 36.39 197.87 L 56.73 197.87 L 56.73 180.98 L 73.76 180.98 L 73.76 160.67 Z" fill="#f5f5f5" stroke="#666666" stroke-width="6" stroke-miterlimit="10" pointer-events="all"/><path d="M 39.61 70.49 C 58.31 70.49 73.49 55.38 73.49 36.74 C 73.49 18.1 58.31 3 39.61 3 C 20.88 3 5.7 18.13 5.7 36.74 C 5.7 55.38 20.88 70.49 39.61 70.49" fill="#f5f5f5" stroke="#666666" stroke-width="6" stroke-miterlimit="10" pointer-events="all"/><path d="M 239.06 70.6 C 257.79 70.6 273 55.46 273 36.83 C 273 18.16 257.79 3 239.06 3 C 220.31 3 205.13 18.13 205.13 36.83 C 205.1 55.46 220.31 70.6 239.06 70.6" fill="#f5f5f5" stroke="#666666" stroke-width="6" stroke-miterlimit="10" pointer-events="all"/><path d="M 228.79 79.67 C 214.91 79.67 208.59 84.41 203.33 92.58 L 199.92 99.1 L 180.07 93.35 L 180.92 87.97 L 133.54 77.42 L 132.23 83.31 L 123.38 81.34 L 124.71 75.45 L 121.14 74.65 L 117.08 92.72 L 120.62 93.51 L 121.99 87.62 L 130.84 89.59 L 129.51 95.51 L 176.88 106.07 L 178.41 100.53 L 197.6 103.6 L 148.13 198.25 C 144.31 205.87 147.39 215.11 155.05 218.92 C 162.68 222.73 171.98 219.66 175.85 212.04 L 217.12 132.33 L 223.88 132.33 L 223.88 272.97 L 272.51 272.97 L 272.51 79.67 L 228.79 79.67 Z" fill="#f5f5f5" stroke="#666666" stroke-width="6" stroke-miterlimit="10" pointer-events="all"/></g></svg>