<?xml version="1.0" encoding="utf-8"?>
<!-- Generator: Adobe Illustrator 14.0.0, SVG Export Plug-In  -->
<!DOCTYPE svg PUBLIC "-//W3C//DTD SVG 1.1//EN" "http://www.w3.org/Graphics/SVG/1.1/DTD/svg11.dtd" [
	<!ENTITY ns_flows "http://ns.adobe.com/Flows/1.0/">
]>
<svg version="1.1"
	 xmlns="http://www.w3.org/2000/svg" xmlns:xlink="http://www.w3.org/1999/xlink" xmlns:a="http://ns.adobe.com/AdobeSVGViewerExtensions/3.0/"
	 x="0px" y="0px" width="150px" height="150px" viewBox="-38.044 -28.078 150 150" enable-background="new -38.044 -28.078 150 150"
	 xml:space="preserve">
<defs>
</defs>
<path fill-rule="evenodd" clip-rule="evenodd" d="M32,0.922c20.279-6.416,20.875,22.701,6,24C24.636,26.089,17.203,5.603,32,0.922z
	 M26,13.922c2.207,16.917,32.264,3.836,15-11C30.5,1.371,25.052,6.648,26,13.922z"/>
<path fill-rule="evenodd" clip-rule="evenodd" fill="#FFFFFF" d="M41,2.922c17.264,14.836-12.793,27.917-15,11
	C25.052,6.648,30.5,1.371,41,2.922z"/>
<path fill-rule="evenodd" clip-rule="evenodd" d="M47,77.922c2.365,1.301,5.664,1.669,8,3c0.626,3.931,2.973,7.248,1,11
	c-5.865,0.865-6.956-3.044-10-5c-12.553,2.167-41.076,8.525-46-5c11.449-17.884,34.875-23.791,34-54c1.856-1.811,7.166-0.168,8-3
	C52.245,34.309,55.792,64.328,47,77.922z M36,29.922c-2.033,13.322-3.767,24.267-11,32c-4.498,4.809-13.614,5.072-15,13
	c17.071-4.596,26.909-16.424,29-36c1.46,4.626,1.646,16.305,0,25c-3.374,17.833-25.058,6.376-37,18c9.04,10.396,32.719,4.589,46,2
	c3.317,0.35,1.181,6.153,6,5c-2.774-17.983-30.398,2.612-43-7c9.771-2.229,24.063,0.063,33-3c8.658-12.133,5.548-40.279-2-51
	C41.08,29.668,38.874,30.129,36,29.922z M24,72.922c6.489-1.19,15.05-5.599,11-14C34.066,65.668,24.245,68.815,24,72.922z"/>
<path fill-rule="evenodd" clip-rule="evenodd" fill="#FFFFFF" d="M42,27.922c7.548,10.721,10.658,38.867,2,51
	c-8.937,3.063-23.229,0.771-33,3c12.602,9.612,40.226-10.983,43,7c-4.819,1.153-2.683-4.65-6-5c-13.281,2.589-36.96,8.396-46-2
	c11.942-11.624,33.626-0.167,37-18c1.646-8.695,1.46-20.374,0-25c-2.091,19.576-11.929,31.404-29,36c1.386-7.928,10.502-8.191,15-13
	c7.233-7.733,8.967-18.678,11-32C38.874,30.129,41.08,29.668,42,27.922z"/>
</svg>
