<?xml version="1.0" encoding="UTF-8"?>
<!DOCTYPE svg PUBLIC "-//W3C//DTD SVG 1.1//EN" "http://www.w3.org/Graphics/SVG/1.1/DTD/svg11.dtd">
<svg xmlns="http://www.w3.org/2000/svg" xmlns:xlink="http://www.w3.org/1999/xlink" version="1.1" width="276px" height="276px" viewBox="-0.5 -0.5 276 276"><defs/><g><rect x="2.5" y="3" width="270" height="270" fill="none" stroke="none" pointer-events="all"/><path d="M 255.89 73.79 C 241.81 83.67 234.23 87.71 219.65 86.81 C 214.15 86.75 211.25 83.93 205.83 84.54 C 200.79 84.76 198.21 87.04 193.14 89.09 C 185.38 91.97 181.14 94.57 173.01 97.62 C 167.83 99.38 164.55 99.44 159.19 101.66 C 154.58 104.03 156.79 102.11 153.57 106.59 C 149.41 112.14 150.42 116.5 146.5 125.99 C 141.65 138.46 142.21 140.13 144.98 141.67 C 143.14 148.05 142.71 152.32 143.14 159.24 C 143.65 164.5 141.81 168.15 146.47 172.32 C 152.85 178.03 166.23 191.43 169.65 191.66 C 174.77 191.43 189.67 192.11 197.25 185.79 C 198.95 184.51 199.46 183.19 197.99 188.07 C 197.67 188.68 179.11 206.09 177.09 206.02 C 162.79 206.57 160.05 207.37 159.78 207.78 C 158.13 207.01 147.19 191.27 140.47 197.04 C 137.89 198.94 136.69 200.76 135.67 204.19 C 136.55 206.41 140.74 209.9 144.58 212.79 C 150.13 217.05 150.63 221.54 156.21 223.14 C 162.95 224.97 170.15 223.75 174.45 224.43 C 176.1 224.97 191.01 219.71 200.29 213.68 C 208.87 208.36 188.47 223.94 183.49 231.64 C 168.45 237.35 172.69 237.57 165.54 239.33 C 158.9 241.16 159.22 240.71 154.69 242.44 C 150.02 243.82 146.15 251.49 150.58 255.53 C 153.22 258.19 161.51 254.47 169.65 254.15 C 173.25 254.08 187.97 245.94 191.3 243.79 C 199.65 238.37 205.75 230.93 210.69 226.67 C 217.51 220.96 202.98 242.41 196.85 251.39 C 195.09 254.28 194.26 254.88 192.05 258.6 C 188.39 264.31 193.06 273 195.38 271.62 C 198.1 270.4 199.86 263.86 202.82 261.75 C 204.34 260.75 208.37 253.6 212.18 248.73 C 214.95 244.91 216.98 243.25 219.62 239.3 C 224.1 232.6 225.06 227.5 228.98 220.35 C 231.38 216.63 233.09 215.48 235.3 210.93 C 246.98 184.28 243.57 172.36 254.74 153.34 C 258.15 147.7 261.99 146.35 267.43 142.99 C 272.5 98.68 255.78 73.86 255.89 73.79 Z M 201.73 144.4 C 199.06 155.59 199.33 156.87 194.29 161.07 C 188.15 166.71 187.83 162.45 173.75 171.87 C 173.75 171.87 167.94 164.56 158.79 161.07 C 158.85 161.23 156.34 146.93 151.35 142.12 C 163.22 131.25 162.9 122.05 164.79 122.34 C 169.03 122.79 175.78 125.38 188.29 119.68 C 195.46 136.19 204.18 135.35 201.73 144.4 Z" fill="rgb(255, 255, 255)" stroke="rgb(0, 0, 0)" stroke-width="6" stroke-miterlimit="10" pointer-events="all"/><path d="M 130.42 63.44 C 124.87 58.95 124.29 54.46 118.79 53.02 C 112.05 51.03 104.77 52.25 100.55 51.25 C 98.9 51.03 84.02 56.29 74.79 62.06 C 66.07 67.61 86.53 52.02 91.59 44.04 C 106.55 38.65 102.26 38.4 109.54 36.44 C 116.1 34.84 115.78 35.29 120.34 33.72 C 124.95 32.21 128.87 24.58 124.45 20.25 C 121.73 17.81 113.51 21.53 105.43 21.63 C 101.75 21.88 87.03 30.03 83.7 32.34 C 75.35 37.6 69.25 45.03 64.31 49.01 C 57.43 55.04 72.02 33.65 78.15 24.74 C 79.91 21.69 80.74 21.08 83.01 17.52 C 86.55 11.66 81.94 3 79.67 4.06 C 76.9 5.57 75.14 12.11 71.78 14.41 C 70.58 15.25 66.53 22.4 62.82 27.43 C 60.05 31.09 58.02 32.75 55.35 36.95 C 50.82 43.43 49.91 48.53 46.02 55.36 C 43.62 59.46 41.86 60.52 39.7 65.23 C 27.99 91.69 31.35 103.61 20.23 122.34 C 16.82 128.33 12.98 129.65 7.54 133.14 C 2.5 177.42 19.17 202.14 19.09 202.01 C 33.17 192.36 40.69 188.32 55.33 188.93 C 60.82 189.32 63.73 192.14 69.17 191.66 C 74.21 191.27 76.79 189 81.86 187.17 C 89.62 184.06 93.86 181.46 101.62 178.58 C 107.17 176.68 110.47 176.59 115.83 174.09 C 120.45 172.03 118.23 173.93 121.46 169.6 C 125.57 163.89 124.61 159.56 128.15 150.26 C 133.41 137.57 132.82 135.9 130.05 134.52 C 131.81 127.98 132.31 123.78 131.89 116.95 C 131.33 111.63 133.22 107.91 128.55 103.93 C 122.18 98 108.79 84.6 105.43 84.54 C 100.26 84.6 85.35 83.93 77.78 89.92 C 76.07 91.53 75.57 92.81 77.03 88.16 C 77.35 87.32 95.91 69.88 97.94 69.66 C 111.19 69.31 114.53 68.66 115.14 68.31 C 116.45 68.34 127.73 84.86 134.55 79.12 C 137.09 77.06 138.34 75.24 139.41 71.97 C 138.45 69.59 134.29 66.1 130.42 63.44 Z M 80.71 114.74 C 86.77 109.35 87.14 113.58 101.25 104.38 C 101.25 104.16 107.06 111.47 116.21 114.74 C 116.15 114.8 118.66 129.1 123.65 134.07 C 111.78 144.81 112.1 154.02 110.21 153.86 C 105.97 153.25 99.22 150.65 86.71 156.13 C 79.46 139.84 70.79 140.77 73.27 131.31 C 75.91 120.51 75.62 119.13 80.71 114.74 Z" fill="rgb(255, 255, 255)" stroke="rgb(0, 0, 0)" stroke-width="6" stroke-miterlimit="10" pointer-events="all"/></g></svg>