<?xml version="1.0" encoding="utf-8"?>
<!-- Generator: Adobe Illustrator 14.0.0, SVG Export Plug-In  -->
<!DOCTYPE svg PUBLIC "-//W3C//DTD SVG 1.1//EN" "http://www.w3.org/Graphics/SVG/1.1/DTD/svg11.dtd" [
	<!ENTITY ns_flows "http://ns.adobe.com/Flows/1.0/">
]>
<svg version="1.1"
	 xmlns="http://www.w3.org/2000/svg" xmlns:xlink="http://www.w3.org/1999/xlink" xmlns:a="http://ns.adobe.com/AdobeSVGViewerExtensions/3.0/"
	 x="0px" y="0px" width="150px" height="150px" viewBox="-40.914 -6.311 150 150" enable-background="new -40.914 -6.311 150 150"
	 xml:space="preserve">
<defs>
</defs>
<path fill-rule="evenodd" clip-rule="evenodd" d="M28.13,7.689c-1.787,8.361-9.759,15.893-9,26c0.774,10.304,13.119,20.79,21,20
	c17.546-1.758,15.971-26.862,8-41c2.392-4.195,8.711-7.798,15-5c1.214,5.547-2.592,6.075-4,9c4.72,10.165,8.75,15.125,8,24
	c-1.495,17.675-26.724,20.376-22,35c20.26,9.313,31.002,32.191,17,58c-3.019,1.347-7.981,1.347-11,0c1.612-10.963,9.388-20.323,7-31
	c-2.193-9.806-13.691-9.638-19-17c-7.678,6.203-24.13,4.472-27,14c-3.234,10.737,7.404,17.827,10,28c-2.271,1.729-5.587,2.413-10,2
	c-5.501-8.68-13.229-19.236-12-30c1.506-13.195,17.278-16.66,28-22c8.656-17.724-20.183-20.724-21-42
	c-0.332-8.636,3.457-16.487,10-25c-1.823-2.511-6.089-2.578-6-7C14.848-4.38,25.746,2.563,28.13,7.689z M14.13,3.689
	c-0.482,4.815,6.208,2.459,7,6c-19.705,15.808-7.7,47.333,11,55c0.738,7.071-0.875,11.792-3,16c-9.779,3.853-24.675,7.355-26,20
	c-0.899,8.587,5.93,27.114,15,26c-3.077-9.691-11.493-16.792-9-27c2.767-11.329,20.614-10.181,29-17c6.281,6.263,15.339,6.519,20,14
	c6.41,10.288-0.486,22.71-4,35c8.561,1.757,8.984-7.674,10-12c1.361-5.795,3.45-13.69,2-20c-3.676-15.993-33.946-17.015-22-37
	c19.641-4.162,26.278-33.79,10-47c1.485-1.356,9.572-5.059,5-6c-4.318-0.651-5.605,1.728-8,3c8.489,15.516,8.192,40.679-10,43
	c-23.58,3.009-30.092-31.028-16-49C22.73,4.675,18.083,0.976,14.13,3.689z"/>
<path fill-rule="evenodd" clip-rule="evenodd" fill="#FFFFFF" d="M25.13,6.689c-14.092,17.972-7.58,52.009,16,49
	c18.192-2.321,18.489-27.484,10-43c2.395-1.272,3.682-3.651,8-3c4.572,0.941-3.515,4.644-5,6c16.278,13.21,9.641,42.838-10,47
	c-11.946,19.985,18.324,21.007,22,37c1.45,6.31-0.639,14.205-2,20c-1.016,4.326-1.439,13.757-10,12c3.514-12.29,10.41-24.712,4-35
	c-4.661-7.481-13.719-7.737-20-14c-8.386,6.819-26.233,5.671-29,17c-2.493,10.208,5.923,17.309,9,27
	c-9.07,1.114-15.899-17.413-15-26c1.325-12.645,16.221-16.147,26-20c2.125-4.208,3.738-8.929,3-16c-18.7-7.667-30.705-39.192-11-55
	c-0.792-3.541-7.482-1.185-7-6C18.083,0.976,22.73,4.675,25.13,6.689z"/>
<path fill-rule="evenodd" clip-rule="evenodd" d="M32.13,91.689c21.455-7.917,21.333,23.263,6,24
	C24.896,116.325,18.746,96.628,32.13,91.689z M47.13,102.689c0.039-6.823-3.737-11.887-13-9
	C11.799,100.649,46.994,126.727,47.13,102.689z"/>
<path fill-rule="evenodd" clip-rule="evenodd" fill="#FFFFFF" d="M34.13,93.689c9.263-2.887,13.039,2.177,13,9
	C46.994,126.727,11.799,100.649,34.13,93.689z"/>
</svg>
