<?xml version="1.0" encoding="utf-8"?>
<!-- Generator: Adobe Illustrator 14.0.0, SVG Export Plug-In  -->
<!DOCTYPE svg PUBLIC "-//W3C//DTD SVG 1.1//EN" "http://www.w3.org/Graphics/SVG/1.1/DTD/svg11.dtd" [
	<!ENTITY ns_flows "http://ns.adobe.com/Flows/1.0/">
]>
<svg version="1.1"
	 xmlns="http://www.w3.org/2000/svg" xmlns:xlink="http://www.w3.org/1999/xlink" xmlns:a="http://ns.adobe.com/AdobeSVGViewerExtensions/3.0/"
	 x="0px" y="0px" width="150px" height="150px" viewBox="-15.044 -6.077 150 150" enable-background="new -15.044 -6.077 150 150"
	 xml:space="preserve">
<defs>
</defs>
<path fill-rule="evenodd" clip-rule="evenodd" d="M54,3.923c0.643,7.257-11.185,7.125-15,4C37.453-1.293,51.265-2.254,54,3.923z
	 M42,6.923c3.129-0.204,7.341,0.674,9-1C51.639,0.971,40.336,1.836,42,6.923z"/>
<path fill-rule="evenodd" clip-rule="evenodd" fill="#FFFFFF" d="M51,5.923c-1.659,1.674-5.871,0.796-9,1
	C40.336,1.836,51.639,0.971,51,5.923z"/>
<path fill-rule="evenodd" clip-rule="evenodd" d="M57,21.923c19.58-5.821,20.667,21.846,7,24C49.942,48.139,41.016,26.675,57,21.923
	z M51,36.923c1.308,4.505,6.527,6.618,15,6C86.972,26.553,44.388,14.142,51,36.923z"/>
<path fill-rule="evenodd" clip-rule="evenodd" fill="#FFFFFF" d="M66,42.923c-8.473,0.618-13.692-1.495-15-6
	C44.388,14.142,86.972,26.553,66,42.923z"/>
<path fill-rule="evenodd" clip-rule="evenodd" d="M109,24.923c1.632,7.864-6.162,10.854-12,8
	C95.644,25.335,103.316,22.224,109,24.923z M100,31.923c2.338-0.329,4.132-1.202,6-2c0-1.333,0-2.667,0-4
	C102.688,26.469,98.02,29.213,100,31.923z"/>
<path fill-rule="evenodd" clip-rule="evenodd" fill="#FFFFFF" d="M106,25.923c0,1.333,0,2.667,0,4c-1.868,0.798-3.662,1.671-6,2
	C98.02,29.213,102.688,26.469,106,25.923z"/>
<path fill-rule="evenodd" clip-rule="evenodd" d="M115,34.923c4.101,1.281,1.038,7.765,0,10c-2.711,1.289-5.553,2.447-10,2
	c1.58,23.431-23.492,35.573-37,15c-1.325,18.809,9.151,49.822-1,70c4.97-0.303,9.511-0.178,11,3c1.439,8.777-14.079,6.659-18,4
	c-4.769,3.129-17.981,3.588-19-3c0.665-4.002,6.432-2.901,11-3c-8.785-22.006,0.604-45.72,2-69c-3.995,6.472-28.579,14.988-37,3
	c-2.763,1.237-5.08,2.92-9,3c-3.805-2.862-7.048-6.286-8-12c10.575-1.925,24.728,7.048,35,5c9-1.795,11.741-9.248,20-17
	c2.143,2.019,9.201,3.374,11,0c6.781,4.773,11.777,16.628,20,16c10.019-0.766,9.078-15.879,15-24
	C108.629,39.956,112.079,36.338,115,34.923z M102,40.923c-3.857,9.103-5.127,21.413-14,23c-12.583,2.25-17.332-18.03-32-14
	c-7.696,4.478-10.447,14.672-21,16c-6.112,0.769-11.531-3.006-18-4c-5.52-0.848-10.576,2.481-14-2c0.525,3.475,3.352,4.648,5,7
	c4.963,0.963,5.334-2.667,9-3c12.062,13.581,33.56,3.671,40-8c-0.308,27.634-10.961,51.897-3,79c-1.266,2.401-7.885-0.552-9,2
	c4.374,1.889,8.626,1.889,13,0c3.55-13.116-2.231-35.565,3-47c1.598,9.379-0.922,28.85,0,46c2.407,2.729,12.295,5.223,14,0
	c-1.078-2.922-8.922,0.922-10-2c8.76-20.839-1.287-52.641,1-78c13.104,21.038,37.541,16.787,37-12c4.97,0.303,9.161-0.172,11-3
	c-0.156-1.177,0.172-2.838-1-3C110.802,42.606,108.026,40.997,102,40.923z"/>
<path fill-rule="evenodd" clip-rule="evenodd" fill="#FFFFFF" d="M113,37.923c1.172,0.162,0.844,1.823,1,3
	c-1.839,2.828-6.03,3.303-11,3c0.541,28.787-23.896,33.038-37,12c-2.287,25.359,7.76,57.161-1,78c1.078,2.922,8.922-0.922,10,2
	c-1.705,5.223-11.593,2.729-14,0c-0.922-17.15,1.598-36.621,0-46c-5.231,11.435,0.55,33.884-3,47c-4.374,1.889-8.626,1.889-13,0
	c1.115-2.552,7.734,0.401,9-2c-7.961-27.103,2.692-51.366,3-79c-6.44,11.671-27.938,21.581-40,8c-3.666,0.333-4.037,3.963-9,3
	c-1.648-2.352-4.475-3.525-5-7c3.424,4.481,8.48,1.152,14,2c6.469,0.994,11.888,4.769,18,4c10.553-1.328,13.304-11.522,21-16
	c14.668-4.03,19.417,16.25,32,14c8.873-1.587,10.143-13.897,14-23C108.026,40.997,110.802,42.606,113,37.923z"/>
<path fill-rule="evenodd" clip-rule="evenodd" d="M17,44.923c-0.409,2.409,1.826,2.174,1,5c-0.248,4.457-8.423,5.064-12,3
	C4.924,45.514,9.964,44.221,17,44.923z M9,48.923c-0.203,3.831,5.798,3.357,6,0C14.58,46.698,9.694,48.141,9,48.923z"/>
<path fill-rule="evenodd" clip-rule="evenodd" fill="#FFFFFF" d="M15,48.923c-0.202,3.357-6.203,3.831-6,0
	C9.694,48.141,14.58,46.698,15,48.923z"/>
</svg>
