<?xml version="1.0" encoding="utf-8"?>
<!-- Generator: Adobe Illustrator 14.0.0, SVG Export Plug-In  -->
<!DOCTYPE svg PUBLIC "-//W3C//DTD SVG 1.1//EN" "http://www.w3.org/Graphics/SVG/1.1/DTD/svg11.dtd" [
	<!ENTITY ns_flows "http://ns.adobe.com/Flows/1.0/">
]>
<svg version="1.1"
	 xmlns="http://www.w3.org/2000/svg" xmlns:xlink="http://www.w3.org/1999/xlink" xmlns:a="http://ns.adobe.com/AdobeSVGViewerExtensions/3.0/"
	 x="0px" y="0px" width="150px" height="150px" viewBox="-21.916 -32.903 150 150" enable-background="new -21.916 -32.903 150 150"
	 xml:space="preserve">
<defs>
</defs>
<path fill-rule="evenodd" clip-rule="evenodd" d="M55.084,26.097c-21.469,2.437-20.935-24.113-7-26c8.32-1.126,19.325,7.708,14,19
	c-0.775,1.645-5.951,4.056-6,5c-0.254,4.928,15.732,17.888,19,21c9.728-2.015,15.497-17.272,26-12c-6.193,15.675-34.291,34.011-42,8
	c-10.67,22.888,25.332,15.841,26,34c-3.495,4.171-9.858,5.475-16,7c2.156,3.094,4.13,14.569-1,16c-6.131,0.797-6.714-3.953-7-9
	c-6.328-1.171-15.481-3.795-21,0c-2.131,2.202-0.139,8.528-4,9c-7.563-0.437-6.774-9.226-8-16c-5.26-1.74-10.705-3.295-14-7
	c1.983-14.35,18.281-14.386,28-21c0-5,0-10,0-15c-8.247,14.287-44.042,9.998-42-8c9.84,0.273,15.452,9.019,25,8
	c8.274-0.883,12.987-8.813,19-14C47.513,26.972,51.328,29.773,55.084,26.097z M40.084,14.097c1.027,8.703,16.17,12.179,20,3
	C62.982-4.177,38.574,1.302,40.084,14.097z M44.084,28.097c-7.815,14.853-28.089,16.443-42,6c3.011,5.75,10.178,10.149,17,11
	c11.893,1.483,17.386-5.963,25-10c1.376,7.073,1.657,17.155-1,23c-11.649,2.351-21.5,6.5-27,15c4.609,5.119,17.217,9.252,25,5
	c-5.358-1.642-12.471-1.529-15-6c6.866-11.864,41.627-11.857,44,1c-11.145,5.188-24.971,7.695-39,10c0.063,5.27-0.18,10.847,4,12
	c3.604-19.396,37.96-8.04,47-22c-4.459-9.541-17.125-10.875-26-16c-3.037-5.745-2.761-17.416,2-21c5.343,5.627,7.465,14.909,15,16
	c10.261,1.486,19.232-11.357,25-18c-11.455,1.157-12.931,13.66-23,13c-9.362-0.614-12.077-13.444-20-19
	C53.521,32.344,46.357,29.301,44.084,28.097z M29.084,72.097c11.228,6.145,28.383,5.684,39-1
	C59.004,64.215,37.153,64.468,29.084,72.097z M56.084,86.097c3.499-0.166,6.401,0.266,8,2c-0.096,4.096,0.138,7.862,4,8
	c0.841-2.492,1.309-5.357,1-9C66.096,84.777,59.066,82.804,56.084,86.097z"/>
<path fill-rule="evenodd" clip-rule="evenodd" fill="#FFFFFF" d="M60.084,17.097c-3.83,9.179-18.973,5.703-20-3
	C38.574,1.302,62.982-4.177,60.084,17.097z"/>
<path fill-rule="evenodd" clip-rule="evenodd" fill="#FFFFFF" d="M55.084,28.097c7.923,5.556,10.638,18.386,20,19
	c10.069,0.66,11.545-11.843,23-13c-5.768,6.643-14.739,19.486-25,18c-7.535-1.091-9.657-10.373-15-16
	c-4.761,3.584-5.037,15.255-2,21c8.875,5.125,21.541,6.459,26,16c-9.04,13.96-43.396,2.604-47,22c-4.18-1.153-3.937-6.73-4-12
	c14.029-2.305,27.855-4.812,39-10c-2.373-12.857-37.134-12.864-44-1c2.529,4.471,9.642,4.358,15,6c-7.783,4.252-20.391,0.119-25-5
	c5.5-8.5,15.351-12.649,27-15c2.657-5.845,2.376-15.927,1-23c-7.614,4.037-13.107,11.483-25,10c-6.822-0.851-13.989-5.25-17-11
	c13.911,10.443,34.185,8.853,42-6C46.357,29.301,53.521,32.344,55.084,28.097z"/>
<path fill-rule="evenodd" clip-rule="evenodd" fill="#FFFFFF" d="M69.084,87.097c0.309,3.643-0.159,6.508-1,9
	c-3.862-0.138-4.096-3.904-4-8c-1.599-1.734-4.501-2.166-8-2C59.066,82.804,66.096,84.777,69.084,87.097z"/>
</svg>
