<?xml version="1.0" encoding="utf-8"?>
<!-- Generator: Adobe Illustrator 14.0.0, SVG Export Plug-In  -->
<!DOCTYPE svg PUBLIC "-//W3C//DTD SVG 1.1//EN" "http://www.w3.org/Graphics/SVG/1.1/DTD/svg11.dtd" [
	<!ENTITY ns_flows "http://ns.adobe.com/Flows/1.0/">
]>
<svg version="1.1"
	 xmlns="http://www.w3.org/2000/svg" xmlns:xlink="http://www.w3.org/1999/xlink" xmlns:a="http://ns.adobe.com/AdobeSVGViewerExtensions/3.0/"
	 x="0px" y="0px" width="150px" height="150px" viewBox="-26.974 -20.306 150 150" enable-background="new -26.974 -20.306 150 150"
	 xml:space="preserve">
<defs>
</defs>
<path fill-rule="evenodd" clip-rule="evenodd" d="M42.07,1.694c21.087-9.355,23.966,23.027,7,24
	C32.88,26.623,31.403,6.427,42.07,1.694z M48.07,22.694c12.058,0.056,14.44-24.411-3-19C32.404,7.624,39.991,22.657,48.07,22.694z"
	/>
<path fill-rule="evenodd" clip-rule="evenodd" fill="#FFFFFF" d="M45.07,3.694c17.44-5.411,15.058,19.056,3,19
	C39.991,22.657,32.404,7.624,45.07,3.694z"/>
<path fill-rule="evenodd" clip-rule="evenodd" d="M103.07,22.694c-2.593,1.073-4.904,2.43-9,2c-2.864,18.267-26.73,30.81-41,15
	c-0.91,4.757-2.271,9.062-2,15c14.59,10.076,33.075,16.259,30,44c2.859,1.808,7.599,1.734,7,7c-1.986,7-15.159,3.739-18,0
	c2.144-22.477-7.258-33.409-24-37c-1.668,14.998-9.632,23.701-22,28c0.822,3.511,5.599,3.067,4,9c-6.071,5.147-16.034,0.262-18-5
	c-1.213-11.262,11.026-12.115,17-19c8.416-9.699,8.029-27.294,9-43c-16.892-0.225-20.875,12.459-22,28
	c-3.482,1.969-11.609,1.313-14-1c-0.701-4.701,4.045-3.954,5-7c-1.2-24.2,16.596-29.404,36-33c2.475,2.83,7.827,4.093,11,1
	c8.391,2.192,13.139,10.4,21,9c8.809-1.568,8.817-13.895,15-20C95.593,15.505,102.329,16.103,103.07,22.694z M71.07,38.694
	c-6.648,0.226-10.812-6.167-17-9c-4.738,1.361-11.563,1.618-15-1c-19.231,2.769-33.394,10.606-32,34c-1.862,0.138-3.342,0.658-4,2
	c3.583,0.478,5.778,1.626,9,0c-0.531-15.482,7.104-29.785,26-29c2.036,11.814-0.128,34.314-7,45c-5.614,8.73-23.312,10.94-17,22
	c3.011,2.439,9.355,3.567,12,1c0.779-5.112-7.087-1.579-7-6c12.093-6.574,23.884-13.45,25-31c1.003,0.003,1.19-0.81,2-1
	c17.558,4.775,28.836,15.83,27,40c2.382,0.459,11.432,3.199,12-1c-1.184-4.293-4.925-0.825-7-3c4.806-25.648-12.798-36.168-29-44
	c0.312-7.688-1.056-17.056,3-21c14.762,15.811,38.357,3.868,41-15c2.072-0.595,6.569,1.236,7-1
	C84.938,9.878,84.296,38.245,71.07,38.694z"/>
<path fill-rule="evenodd" clip-rule="evenodd" fill="#FFFFFF" d="M100.07,20.694c-0.431,2.236-4.928,0.405-7,1
	c-2.643,18.868-26.238,30.811-41,15c-4.056,3.944-2.688,13.312-3,21c16.202,7.832,33.806,18.352,29,44c2.075,2.175,5.816-1.293,7,3
	c-0.568,4.199-9.618,1.459-12,1c1.836-24.17-9.442-35.225-27-40c-0.81,0.19-0.997,1.003-2,1c-1.116,17.55-12.907,24.426-25,31
	c-0.087,4.421,7.779,0.888,7,6c-2.645,2.567-8.989,1.439-12-1c-6.312-11.06,11.386-13.27,17-22c6.872-10.686,9.036-33.186,7-45
	c-18.896-0.785-26.531,13.518-26,29c-3.222,1.626-5.417,0.478-9,0c0.658-1.342,2.138-1.862,4-2c-1.394-23.394,12.769-31.231,32-34
	c3.437,2.618,10.262,2.361,15,1c6.188,2.833,10.352,9.226,17,9C84.296,38.245,84.938,9.878,100.07,20.694z"/>
</svg>
