<?xml version="1.0" encoding="utf-8"?>
<!-- Generator: Adobe Illustrator 14.0.0, SVG Export Plug-In  -->
<!DOCTYPE svg PUBLIC "-//W3C//DTD SVG 1.1//EN" "http://www.w3.org/Graphics/SVG/1.1/DTD/svg11.dtd" [
	<!ENTITY ns_flows "http://ns.adobe.com/Flows/1.0/">
]>
<svg version="1.1"
	 xmlns="http://www.w3.org/2000/svg" xmlns:xlink="http://www.w3.org/1999/xlink" xmlns:a="http://ns.adobe.com/AdobeSVGViewerExtensions/3.0/"
	 x="0px" y="0px" width="150px" height="150px" viewBox="-41.319 -8.318 150 150" enable-background="new -41.319 -8.318 150 150"
	 xml:space="preserve">
<defs>
</defs>
<path fill-rule="evenodd" clip-rule="evenodd" d="M28.725,0.682c20.53-5.693,21.446,26.209,2,24
	C20.75,23.549,14.232,4.701,28.725,0.682z M22.725,15.682c3.976,14.594,30.487,1.368,16-12C27.158-0.823,20.538,7.654,22.725,15.682
	z"/>
<path fill-rule="evenodd" clip-rule="evenodd" fill="#FFFFFF" d="M38.725,3.682c14.487,13.368-12.024,26.594-16,12
	C20.538,7.654,27.158-0.823,38.725,3.682z"/>
<path fill-rule="evenodd" clip-rule="evenodd" d="M41.725,69.682c4.501,16.494,2.363,35.654-2,51c0.707,4.293,7.833,2.166,7,8
	c-0.71,6.486-12.291,3.904-16,2c-1.524-14.087,4.771-32.102,0-47c-7.828,10.486-6.702,32.495-4,48c-5.094,1.183-13.874,4.206-17-1
	c-1.226-5.893,3.924-5.409,6-8c-4.098-19.444-1.771-41.74,7-54c-12.696-6.687-32.616-11.643-17-29c3.586-3.986,14.043-13.431,18-14
	c5.17-0.744,10.725,4.637,16,0c9.244,6.505,24.476,11.959,24,25C63.345,61.082,52.208,65.799,41.725,69.682z M60.725,52.682
	c1.975-12.779-12.531-17.783-21-24c-3.277,0.056-3.823,2.844-8,2c-13.273-3.156-25.992,9.442-29,23c4.375,5.058,16.296,12.902,22,10
	c-5.968-6.126-16.279-4.582-16-14c0.196-6.622,8.45-10.354,16-13c12.934,29.808-19.611,55.282-5,90c-4.019-0.352-7.317,0.016-8,3
	c3.005,2.274,8.58,0.437,12,0c-2.794-18.847-3.108-41.804,8-52c5.912,13.798,1.681,34.836,1,51c1.652,0.922,11.006,2.863,11-1
	c-1.137-4.541-7.718,0.904-8-3c14.758-25.614-5.313-62.865,5-88c8.303,2.506,15.837,7.853,15,15c-1.042,8.895-13.466,6.499-16,15
	C49.527,64.146,59.395,61.294,60.725,52.682z M21.725,39.682c-3.441,3.892-9.511,5.155-11,11c3.104,4.562,7.447,7.886,15,8
	C25.308,51.433,26.985,42.088,21.725,39.682z M40.725,59.682c6.575-1.092,10.551-4.782,13-10c-2.223-5.11-6.646-8.021-12-10
	C38.999,43.832,39.079,54.275,40.725,59.682z"/>
<path fill-rule="evenodd" clip-rule="evenodd" fill="#FFFFFF" d="M39.725,66.682c2.534-8.501,14.958-6.105,16-15
	c0.837-7.147-6.697-12.494-15-15c-10.313,25.135,9.758,62.386-5,88c0.282,3.904,6.863-1.541,8,3c0.006,3.863-9.348,1.922-11,1
	c0.681-16.164,4.912-37.202-1-51c-11.108,10.196-10.794,33.153-8,52c-3.42,0.437-8.995,2.274-12,0c0.683-2.984,3.981-3.352,8-3
	c-14.611-34.718,17.934-60.192,5-90c-7.55,2.646-15.804,6.378-16,13c-0.279,9.418,10.032,7.874,16,14
	c-5.704,2.902-17.625-4.942-22-10c3.008-13.558,15.727-26.156,29-23c4.177,0.844,4.723-1.944,8-2c8.469,6.217,22.975,11.221,21,24
	C59.395,61.294,49.527,64.146,39.725,66.682z"/>
</svg>
